<mxfile host="app.diagrams.net" modified="2023-09-22T08:58:45.181Z" agent="Mozilla/5.0 (Windows NT 10.0; Win64; x64) AppleWebKit/537.36 (KHTML, like Gecko) Chrome/116.0.0.0 Safari/537.36" etag="Tjh57fvMR2dcJU3xnk9B" version="21.8.0" type="github">
  <diagram name="페이지-1" id="xmTBzVtpNkQksvbnsbZ5">
    <mxGraphModel dx="2074" dy="1110" grid="1" gridSize="10" guides="1" tooltips="1" connect="1" arrows="1" fold="1" page="1" pageScale="1" pageWidth="827" pageHeight="1169" math="0" shadow="0">
      <root>
        <mxCell id="0" />
        <mxCell id="1" parent="0" />
        <mxCell id="mH2rhqGKQyN5SWyq2DwY-1" value="어플리케이션 분석&amp;nbsp;&lt;br&gt;메일&lt;br&gt;어플은 툴일 뿐인다&amp;nbsp; &amp;nbsp;/ 액터가 중요 / 인과관계 / 구조화&amp;nbsp;&amp;nbsp;&lt;br&gt;주제 : 메일 어플을 사용하여 메일을 보낸다&amp;nbsp;" style="rounded=0;whiteSpace=wrap;html=1;" vertex="1" parent="1">
          <mxGeometry x="40" y="60" width="390" height="60" as="geometry" />
        </mxCell>
        <mxCell id="mH2rhqGKQyN5SWyq2DwY-2" value="Actor" style="shape=umlActor;verticalLabelPosition=bottom;verticalAlign=top;html=1;outlineConnect=0;" vertex="1" parent="1">
          <mxGeometry x="40" y="555" width="30" height="60" as="geometry" />
        </mxCell>
        <mxCell id="mH2rhqGKQyN5SWyq2DwY-3" value="메일을 보내야 할&amp;nbsp;&lt;br&gt;일이 생겼다&amp;nbsp;" style="ellipse;whiteSpace=wrap;html=1;" vertex="1" parent="1">
          <mxGeometry x="284" y="440" width="260" height="80" as="geometry" />
        </mxCell>
        <mxCell id="mH2rhqGKQyN5SWyq2DwY-4" value="스마트폰을 연다..?" style="ellipse;whiteSpace=wrap;html=1;" vertex="1" parent="1">
          <mxGeometry x="290" y="550" width="260" height="80" as="geometry" />
        </mxCell>
        <mxCell id="mH2rhqGKQyN5SWyq2DwY-5" value="메일 어플을 실행한다" style="ellipse;whiteSpace=wrap;html=1;" vertex="1" parent="1">
          <mxGeometry x="284" y="650" width="260" height="80" as="geometry" />
        </mxCell>
        <mxCell id="mH2rhqGKQyN5SWyq2DwY-6" value="수신자&amp;nbsp;&lt;br&gt;제목&amp;nbsp;&lt;br&gt;내용&lt;br&gt;" style="ellipse;whiteSpace=wrap;html=1;" vertex="1" parent="1">
          <mxGeometry x="284" y="760" width="260" height="80" as="geometry" />
        </mxCell>
      </root>
    </mxGraphModel>
  </diagram>
</mxfile>
